<svg id="圖層_1" data-name="圖層 1" xmlns="http://www.w3.org/2000/svg" viewBox="0 0 77.4 15.43"><defs><style>.cls-1{fill:#fff0e5;}</style></defs><path class="cls-1" d="M38.46.43V.71c0,1.42,0,2.83,0,4.24,0,.35,0,.37.37.27a6.88,6.88,0,0,1,4,0,2.11,2.11,0,0,1,1.47,1.69,12,12,0,0,1,.17,1.79c0,1,0,2,0,3a3.64,3.64,0,0,1-.75,2.26,3.13,3.13,0,0,1-1.28.88,5.78,5.78,0,0,1-1.88.38,14.06,14.06,0,0,1-1.59,0C38,15.17,37,15.05,36.08,15c-.11,0-.22,0-.34,0s-.28-.12-.28-.34v-9c0-1.43,0-2.87,0-4.3,0-.23.06-.31.29-.35.85-.12,1.69-.27,2.53-.41Zm0,9.87v2.13c0,.31,0,.32.32.32s.78,0,1.17,0c1,0,1.41-.52,1.42-1.37s0-1.83,0-2.75a1.11,1.11,0,0,0-1.21-1.16,3.39,3.39,0,0,0-1.44.31.37.37,0,0,0-.27.41C38.48,8.89,38.48,9.59,38.48,10.3Z"/><path class="cls-1" d="M74.56,15.1l-.26,0H71.62a.41.41,0,0,1-.41-.23c-.8-1.35-1.62-2.7-2.44-4.05a3.09,3.09,0,0,0-.26-.37l-.07,0a1.81,1.81,0,0,0,0,.23v4.08c0,.31,0,.31-.32.31H65.73c-.32,0-.33,0-.33-.33V1.23c0-.3,0-.32.31-.36L68.26.44h.15v9l.07,0a1.09,1.09,0,0,0,.19-.18l1.11-1.74,1.45-2.3a.37.37,0,0,1,.33-.19h2.89l.14,0-.37.6c-.85,1.34-1.69,2.68-2.55,4a.41.41,0,0,0,0,.5c.55.9,1.1,1.81,1.64,2.72l1.17,2A1.9,1.9,0,0,1,74.56,15.1Z"/><path class="cls-1" d="M34,12.46s0,.11,0,.17c0,.67,0,1.34,0,2a.24.24,0,0,1-.21.27,16,16,0,0,1-4.37.31,4.83,4.83,0,0,1-2-.55,3.43,3.43,0,0,1-1.77-2.61A6.68,6.68,0,0,1,25.58,11c0-.93,0-1.85,0-2.77a3.25,3.25,0,0,1,2.65-3.07,7.45,7.45,0,0,1,3.45,0,3.19,3.19,0,0,1,2.52,3.07c.07.82,0,1.66,0,2.49,0,.2-.07.24-.25.24-1.7,0-3.4,0-5.11,0-.34,0-.36,0-.35.36a2.31,2.31,0,0,0,.06.52,1,1,0,0,0,.93.84,18.27,18.27,0,0,0,2.22,0C32.52,12.66,33.25,12.55,34,12.46ZM29.91,9h0c.38,0,.77,0,1.15,0a.28.28,0,0,0,.2-.14c.08-.7-.09-1.47-1-1.59-.73-.1-1.54,0-1.67,1a4.17,4.17,0,0,0,0,.5c0,.14.05.21.2.21C29.17,9,29.54,9,29.91,9Z"/><path class="cls-1" d="M45.4,10.15c0-.73,0-1.38.12-2a3.28,3.28,0,0,1,2.74-3A7,7,0,0,1,52,5.25,3.19,3.19,0,0,1,54.31,8a16.46,16.46,0,0,1,0,4.09,3.31,3.31,0,0,1-.89,2,3.66,3.66,0,0,1-2.14,1,7.37,7.37,0,0,1-1.4.13,6,6,0,0,1-2.41-.44,3.23,3.23,0,0,1-2-2.63C45.44,11.47,45.44,10.77,45.4,10.15Zm6,0h0c0-.52,0-1,0-1.56a1.07,1.07,0,0,0-.64-1,2,2,0,0,0-1.07-.14,1.19,1.19,0,0,0-1.19,1.21c0,.94,0,1.88,0,2.81a1.14,1.14,0,0,0,.82,1.15,2.1,2.1,0,0,0,1.14,0,1.12,1.12,0,0,0,.95-1.17C51.38,11,51.37,10.59,51.37,10.13Z"/><path class="cls-1" d="M55.39,10c0-.65,0-1.37.13-2.06a3.28,3.28,0,0,1,2.69-2.83,7.16,7.16,0,0,1,3.62.06,3.27,3.27,0,0,1,2.48,2.86,8.38,8.38,0,0,1,.07,1.23c0,.83,0,1.66,0,2.49a3.45,3.45,0,0,1-1.06,2.39,3.72,3.72,0,0,1-1.89.91,7.08,7.08,0,0,1-3.54-.15,3.25,3.25,0,0,1-2.35-2.83C55.41,11.44,55.43,10.76,55.39,10Zm6,.05h0c0-.44,0-.87,0-1.31a1.19,1.19,0,0,0-.76-1.19,2,2,0,0,0-1.15-.08,1.11,1.11,0,0,0-1,1.09c0,1.06,0,2.12,0,3.18a1,1,0,0,0,.72.84,2.15,2.15,0,0,0,1.15.08,1.14,1.14,0,0,0,1-1.13C61.39,11.07,61.36,10.57,61.36,10.08Z"/><path class="cls-1" d="M8.29,7.6c.07-.79.14-1.55.21-2.3,0-.14.07-.21.23-.21,1.18,0,2.35,0,3.53,0a5.27,5.27,0,0,1,1.83.36,2.37,2.37,0,0,1,1.5,2,15.18,15.18,0,0,1,.14,1.9c0,1.84,0,3.67,0,5.5v.3H13.2l-.06-.4c0-.17-.1-.24-.28-.15a5.32,5.32,0,0,1-1.72.59,3.8,3.8,0,0,1-2.67-.34,2.7,2.7,0,0,1-1.2-2,3.64,3.64,0,0,1,.07-1.54A2.2,2.2,0,0,1,9.21,9.59,5.43,5.43,0,0,1,10,9.5c.82,0,1.64,0,2.47,0,.15,0,.2-.06.19-.21s0-.57,0-.86a.71.71,0,0,0-.57-.67,3.71,3.71,0,0,0-.73-.12H8.29Zm3.49,3.89v0c-.33,0-.66,0-1,.07a.53.53,0,0,0-.51.45.85.85,0,0,0,.87,1.12,2.94,2.94,0,0,0,1.41-.4.28.28,0,0,0,.1-.2c0-.27,0-.55,0-.82s-.08-.2-.22-.2Z"/><path class="cls-1" d="M7.39,5.11l-.15,1.5c0,.24-.06.48-.07.72s-.08.26-.27.26H5.39c-.34,0-.34,0-.34.35q0,3.44,0,6.87c0,.32,0,.32-.33.32-.8,0-1.6,0-2.4,0-.22,0-.29-.07-.29-.29q0-3.43,0-6.87c0-.38,0-.38-.38-.38h-1c-.15,0-.21-.06-.21-.2,0-.7,0-1.41,0-2.11,0-.14.06-.2.2-.2.36,0,.72,0,1.08,0s.29-.09.29-.3c0-.55,0-1.1,0-1.65a3.32,3.32,0,0,1,.64-2A2.57,2.57,0,0,1,4.28.25a15.51,15.51,0,0,1,3-.1s.13.1.13.15c0,.72,0,1.45,0,2.17,0,.15-.07.18-.2.18-.45,0-.9,0-1.35,0a.73.73,0,0,0-.78.8c0,.44,0,.88,0,1.32,0,.23.09.29.3.28h1.9Z"/><path class="cls-1" d="M24.5,7.74l-1.16-.18A8.19,8.19,0,0,0,21,7.49c-.72.1-1.06.4-1.09,1.12,0,1,0,2.06,0,3.09a1,1,0,0,0,1,1,8.11,8.11,0,0,0,2.41-.06l1.21-.2a1.1,1.1,0,0,1,0,.16v2.08c0,.13,0,.21-.17.24a12.73,12.73,0,0,1-3.48.33,5.25,5.25,0,0,1-2.05-.51A3.4,3.4,0,0,1,17,12.31a7,7,0,0,1-.13-1.2q0-1.11,0-2.22a4.23,4.23,0,0,1,.62-2.22A3.6,3.6,0,0,1,19.94,5.1a9.63,9.63,0,0,1,3.51,0l.9.18c.07,0,.18.11.18.18,0,.73,0,1.46,0,2.19C24.53,7.69,24.52,7.7,24.5,7.74Z"/><path class="cls-1" d="M76.46,14.79a.74.74,0,0,1-.72-.78.73.73,0,1,1,1.46,0A.73.73,0,0,1,76.46,14.79Zm.46-.24c0-.13-.08-.27-.11-.41a.22.22,0,0,1,0-.16.3.3,0,0,0,0-.44.73.73,0,0,0-.64,0,.25.25,0,0,0,0,.12c0,.28,0,.55,0,.82,0,.06.08.1.12.15a.79.79,0,0,0,.12-.15,2.46,2.46,0,0,0,0-.26c.21,0,.24.08.26.21S76.72,14.65,76.92,14.55Z"/><path class="cls-1" d="M76.41,13.62l.22.17-.2.2-.07-.05v-.25Z"/></svg>