<svg id="圖層_1" data-name="圖層 1" xmlns="http://www.w3.org/2000/svg" viewBox="0 0 46.99 15.43"><defs><style>.cls-1{fill:#fff0e5;}</style></defs><path class="cls-1" d="M9,5.5H11.6c.09,0,.15,0,.16.12A6,6,0,0,1,11,9.46a5,5,0,0,1-2.54,2.08A6,6,0,0,1,.4,7.08,5.91,5.91,0,0,1,5.32.21a6,6,0,0,1,4.92,1.35c.11.09.11.14,0,.24-.33.32-.64.65-1,1-.06.06-.09.08-.17,0a4.25,4.25,0,0,0-3-1,4.33,4.33,0,0,0-4,3.57,4.27,4.27,0,0,0,3.47,4.92,4,4,0,0,0,3.6-1,3,3,0,0,0,1-2c0-.14,0-.16-.15-.16H6.45c-.14,0-.17,0-.17-.17q0-.63,0-1.26c0-.13,0-.17.17-.17Z"/><path class="cls-1" d="M37.37,6.08c0-1.8,0-3.59,0-5.38,0-.16,0-.19.2-.19q.66,0,1.32,0c.13,0,.16,0,.16.16,0,2.53,0,5.06,0,7.58,0,1.09,0,2.18,0,3.27,0,.14,0,.17-.17.17H37.51c-.12,0-.15,0-.15-.16C37.37,9.71,37.37,7.9,37.37,6.08Z"/><path class="cls-1" d="M36.06,4.56H34.81c-.11,0-.17,0-.16.13v.46l-.51-.36a2.85,2.85,0,0,0-2.5-.36,3.73,3.73,0,0,0-1.45.88,3.83,3.83,0,0,0-1.27,3,3.88,3.88,0,0,0,.85,2.18,3.55,3.55,0,0,0,2.5,1.42,3,3,0,0,0,2.22-.7s.09-.1.17-.11a5.15,5.15,0,0,1,0,1,1.85,1.85,0,0,1-1.28,1.59,1.92,1.92,0,0,1-1.84-.2,2.5,2.5,0,0,1-.75-.9c-.05-.09-.08-.12-.19-.07l-1.21.52c-.07,0-.1.06-.06.15A3.59,3.59,0,0,0,31,15a4.11,4.11,0,0,0,2.35.28,3.09,3.09,0,0,0,1.85-.9,3.71,3.71,0,0,0,1-2.6c0-1.38,0-2.76,0-4.15,0-.95,0-1.91,0-2.87C36.23,4.59,36.19,4.56,36.06,4.56Zm-2,5.33a1.93,1.93,0,0,1-2.9-.2,2.52,2.52,0,0,1,.08-3.21,2,2,0,0,1,3.17.33,2.5,2.5,0,0,1,.37,1.33A2.38,2.38,0,0,1,34.08,9.89Z"/><path class="cls-1" d="M16.17,4.3A3.83,3.83,0,1,0,20,8.22,3.83,3.83,0,0,0,16.17,4.3ZM17.49,10a2.05,2.05,0,0,1-2.75-.07,2.41,2.41,0,0,1-.2-3.28,2,2,0,0,1,2-.74,2.16,2.16,0,0,1,1.65,1.48,2,2,0,0,1,.13.79A2.31,2.31,0,0,1,17.49,10Z"/><path class="cls-1" d="M24.46,4.29a3.84,3.84,0,1,0,3.83,3.84A3.83,3.83,0,0,0,24.46,4.29Zm1.38,5.64A2.11,2.11,0,0,1,22.46,9a3,3,0,0,1-.12-.4,1.91,1.91,0,0,1,0-.47,2.27,2.27,0,0,1,.78-1.78,2.06,2.06,0,0,1,3,.26A2.41,2.41,0,0,1,25.84,9.93Z"/><path class="cls-1" d="M42.3,9l4.29-1.8c.07,0,.15,0,.1-.17a5.57,5.57,0,0,0-.83-1.51,3.21,3.21,0,0,0-3.72-1,3.79,3.79,0,0,0-2.36,3.85,3.75,3.75,0,0,0,3.73,3.45h.32a1.09,1.09,0,0,0,.26,0,3.72,3.72,0,0,0,2.49-1.54c0-.05.08-.09,0-.14l-1.11-.74c-.05,0-.08,0-.12,0a2.19,2.19,0,0,1-2.11,1,1.83,1.83,0,0,1-1.51-1c0-.08,0-.11.06-.14ZM41.57,8,41.39,8a2.57,2.57,0,0,1,.39-1.42,2,2,0,0,1,2.69-.42c.12.11.3.23.3.37s-.24.16-.37.22Z"/></svg>