<svg id="圖層_1" data-name="圖層 1" xmlns="http://www.w3.org/2000/svg" viewBox="0 0 54.22 15.43"><defs><style>.cls-1{fill:#fff0e5;}</style></defs><path class="cls-1" d="M27.39,12H24.58a2.28,2.28,0,0,1,0-.26v-4a1.87,1.87,0,0,0-.14-.81,1,1,0,0,0-1.59-.24,1.29,1.29,0,0,0-.33.74c0,.13,0,.26,0,.39V12a24,24,0,0,1-2.82,0c-.05-.17-.06-11.42,0-11.64h2.8a2.83,2.83,0,0,1,0,.29v4l.15-.12a2.67,2.67,0,0,1,1.81-.8,3.2,3.2,0,0,1,1.07.12A2.49,2.49,0,0,1,27.07,5.3a3.74,3.74,0,0,1,.32,1.55V12Z"/><path class="cls-1" d="M15.84,11.31s-.05.1-.08.14a2.63,2.63,0,0,1-1.74.79A3.7,3.7,0,0,1,10.2,9.82a4.58,4.58,0,0,1,.57-4.58,3.47,3.47,0,0,1,2.4-1.44,3.11,3.11,0,0,1,2.31.5l.21.17a2.91,2.91,0,0,1,.23.2V4A21.53,21.53,0,0,1,18.6,4c.06.16.07,7.78,0,8H15.93v-.68ZM14.32,9.69A1.63,1.63,0,0,0,16,8a1.68,1.68,0,1,0-3.36,0A1.68,1.68,0,0,0,14.32,9.69Z"/><path class="cls-1" d="M5.59,8.6,7.42,4h3c0,.18-4.25,10.44-4.57,11.08h-3c.05-.11.08-.2.12-.29.35-.82.7-1.64,1.06-2.45A.43.43,0,0,0,4,12C2.89,9.41,1.81,6.85.72,4.3L.6,4A28.44,28.44,0,0,1,3.71,4L5.52,8.6Z"/><path class="cls-1" d="M32.34,3.79A4.2,4.2,0,0,1,35.7,5.26a3.86,3.86,0,0,1,.88,1.87,4.53,4.53,0,0,1-.14,2.34,3.85,3.85,0,0,1-2.21,2.39,4.5,4.5,0,0,1-4.42-.35,3.92,3.92,0,0,1-1.76-2.89,4.26,4.26,0,0,1,.62-2.91,4,4,0,0,1,2.89-1.88,1.26,1.26,0,0,1,.27,0C32,3.78,32.17,3.79,32.34,3.79ZM34,8a1.67,1.67,0,0,0-1.66-1.65A1.59,1.59,0,0,0,30.72,8a1.63,1.63,0,0,0,1.63,1.65A1.68,1.68,0,0,0,34,8Z"/><path class="cls-1" d="M41.48,3.75a4.52,4.52,0,0,1,2.79.94,3.82,3.82,0,0,1,1.38,2.07,4.47,4.47,0,0,1-.12,2.91A3.92,3.92,0,0,1,43,12a4.47,4.47,0,0,1-4.19-.67,3.94,3.94,0,0,1-1.58-3.14,4.23,4.23,0,0,1,1.08-3.09,4.08,4.08,0,0,1,2.42-1.3C41,3.79,41.22,3.78,41.48,3.75Zm0,5.93A1.67,1.67,0,0,0,43.16,8a1.65,1.65,0,0,0-1.63-1.68A1.58,1.58,0,0,0,39.89,8,1.63,1.63,0,0,0,41.51,9.68Z"/><path class="cls-1" d="M47.25,7.67l3-7.29h3.4l-3,7.29Z"/><path class="cls-1" d="M48.13,12.21a1.89,1.89,0,0,1-1.91-1.89,1.9,1.9,0,0,1,3.8,0A1.89,1.89,0,0,1,48.13,12.21Z"/></svg>